<svg xmlns="http://www.w3.org/2000/svg" viewBox="0 0 2834.64567 2834.64567">
  <defs>
    <style>
      .b1efd186-27d3-4336-af7c-4bbbd1fc26f3 {
        fill: #ed6d23;
      }

      .a80f8c21-48da-400c-9335-63fab5c3292f {
        fill: #1c4f96;
      }

      .ef70bd4a-1358-4e6d-8f9e-e76bbd9e593b {
        fill: #ef6c00;
      }
    </style>
  </defs>
  <g id="f1950150-ff80-4236-ba60-8143b0f9021e" data-name="Layer 3">
    <path class="b1efd186-27d3-4336-af7c-4bbbd1fc26f3" d="M2080.21289,1307.36169c13.27637-7.65954,46.72315-27.57446,46.72315-27.57446l37.78735,34.38294V1209.95752H2047.532s19.917,17.83716,34.63819,31.02124c-61.9574,39.82975-255.24789,146.0482-480.68079,199.65955-303.82981,72.25531-645.78725,88.34041-673.70215,91.91491-14.90431,1.9085-45.56275,6.28309-57.36169,8.65955-12.04256,2.42553-34.12769,9.234-34.12769,9.234v23.34045h223.57446v-14.68078s18.89356.17016,25.532.17016c6.63818,0,26.25525-.29785,26.25525-.29785v14.80847h88.46814V1555.532s16.51062-.17029,24.17016-.51074,23.65967-1.70215,23.65967-1.70215v20.46814h360.34033v-75.4469s18.0426-3.06372,27.57446-5.44678,25.19153-7.48925,25.19153-7.48925v88.38293h227.0531V1406.68091s19.75537-8.55322,26.39368-11.74475,22.34045-10.59583,22.34045-10.59583v189.4469h227.87232V1349.87231h-87.82984l-.25537,135.70215h-51.82959V1339.27661S2066.936,1315.02124,2080.21289,1307.36169Zm-279.57458,179.234h-52.766v-26.80847s14.97876-5.10632,26.38306-8.93616,26.38294-9.70214,26.38294-9.70214Z"/>
    <path class="a80f8c21-48da-400c-9335-63fab5c3292f" d="M1606.79,1642.11v68.69006H1482V1689.87h31.99v-37.31995a14.76211,14.76211,0,0,1,14.76-14.76h6.37v52.08h57.94006v-38a12.88576,12.88576,0,0,0-.54-3.75,19.45377,19.45377,0,0,0-1.92993-4.61,7.49,7.49,0,0,0-4.11011-2.66,7.71023,7.71023,0,0,0-2.23-.32h-5.40991a6.27762,6.27762,0,0,0-3.44007,1.03,14.59429,14.59429,0,0,0-2.77,2.21,19.7511,19.7511,0,0,0-2.36,4.35,7.66239,7.66239,0,0,0-.62,3.02V1678.83h-14.04v-36.39a11.58828,11.58828,0,0,1,.14-1.76,29.73981,29.73981,0,0,1,5.14-12.56994c3.30994-4.42,8.39-6.45008,10.97-7.24a10.1209,10.1209,0,0,1,2.9-.42H1581.2l6.76.18005a10.02469,10.02469,0,0,1,5.08008,1.54993,38.04378,38.04378,0,0,1,7.59,6.18006c2.9,3.20007,4.75,7.83,5.6,10.36A10.52417,10.52417,0,0,1,1606.79,1642.11Z"/>
    <path class="a80f8c21-48da-400c-9335-63fab5c3292f" d="M836.29787,1297.65957v-86.55319h222.89362v292.34043c-34.46809,5.10638-177.44681,8.93617-222.89362,30.12766v-46.97873H972.6383V1297.91489Z"/>
    <path class="a80f8c21-48da-400c-9335-63fab5c3292f" d="M1112.80851,1211.10638h86.12766v279.40426s-17.19149,2.85106-86.12766,8.85106Z"/>
    <path class="a80f8c21-48da-400c-9335-63fab5c3292f" d="M1248.6383,1296.89362v-86.04256h223.40425v239.48937s-8.93617,4.51063-87.80851,16.34042V1297.65957Z"/>
    <path class="a80f8c21-48da-400c-9335-63fab5c3292f" d="M1473.14,1620.45v90.3501h-21.13V1635.21a14.76227,14.76227,0,0,1,14.76-14.76Z"/>
    <path class="a80f8c21-48da-400c-9335-63fab5c3292f" d="M1442.15991,1637.13v73.67h-64.32983V1689.87H1421.03v-37.98a14.76433,14.76433,0,0,1,14.77-14.76Z"/>
    <path class="a80f8c21-48da-400c-9335-63fab5c3292f" d="M1364.87,1689.87v20.93005H1216.13a20.50456,20.50456,0,0,1-20.5-20.51V1635.21c0-.28.01-.56995.02991-.85A14.75959,14.75959,0,0,1,1210.4,1620.45h6.37v69.42H1298v-38a12.88136,12.88136,0,0,0-.54-3.75,19.44342,19.44342,0,0,0-1.92993-4.61,7.48959,7.48959,0,0,0-4.11011-2.66,7.71023,7.71023,0,0,0-2.23-.32H1283.79a6.28568,6.28568,0,0,0-3.45,1.03,14.59017,14.59017,0,0,0-2.77,2.21,19.75094,19.75094,0,0,0-2.36011,4.35,7.65448,7.65448,0,0,0-.61,3.02V1678.83h-14.04993v-36.39a11.6048,11.6048,0,0,1,.13989-1.76,29.74033,29.74033,0,0,1,5.14014-12.56994c3.30993-4.42,8.38989-6.45008,10.97-7.24a10.11948,10.11948,0,0,1,2.8999-.42H1286.14l6.76.18005a10.02462,10.02462,0,0,1,5.08,1.54993,38.04079,38.04079,0,0,1,7.59009,6.18006c2.8999,3.20007,4.75,7.83,5.59985,10.36a10.5209,10.5209,0,0,1,.56006,3.39v47.76Z"/>
    <path class="a80f8c21-48da-400c-9335-63fab5c3292f" d="M1178.92993,1636.42993v74.37012H1157.79v-59.61011a14.77074,14.77074,0,0,1,14.77-14.76Z"/>
    <path class="a80f8c21-48da-400c-9335-63fab5c3292f" d="M1140.21,1620.45v90.3501H987.8V1689.87h131.27008v-54.66a14.76433,14.76433,0,0,1,14.77-14.76Z"/>
    <path class="a80f8c21-48da-400c-9335-63fab5c3292f" d="M1692.13,1689.87v20.93005h-47.92a20.49154,20.49154,0,0,1-20.5-20.23h-.02V1635.21a14.7709,14.7709,0,0,1,14.77-14.76h6.37012v69.42Z"/>
    <rect class="a80f8c21-48da-400c-9335-63fab5c3292f" x="1656.79787" y="1717.78723" width="20.10638" height="20.10638" rx="4.46809"/>
    <rect class="a80f8c21-48da-400c-9335-63fab5c3292f" x="1056.75532" y="1659.7234" width="20.10638" height="20.10638" rx="4.46809"/>
    <rect class="a80f8c21-48da-400c-9335-63fab5c3292f" x="1056.75532" y="1636.88298" width="20.10638" height="20.10638" rx="4.46809"/>
    <rect class="a80f8c21-48da-400c-9335-63fab5c3292f" x="1344.76361" y="1659.7234" width="20.10638" height="20.10638" rx="4.46809"/>
    <rect class="a80f8c21-48da-400c-9335-63fab5c3292f" x="1344.76361" y="1636.91489" width="20.10638" height="20.10638" rx="4.46809"/>
    <rect class="a80f8c21-48da-400c-9335-63fab5c3292f" x="1254.2234" y="1717.78723" width="20.10638" height="20.10638" rx="4.46809"/>
    <path class="a80f8c21-48da-400c-9335-63fab5c3292f" d="M1195.65991,1634.36c-.0199.28-.02991.56994-.02991.85v-.85Z"/>
    <path class="a80f8c21-48da-400c-9335-63fab5c3292f" d="M1520.55319,1441.14894s27.82979-6.383,43.9149-9.70213,43.14893-10.46809,43.14893-10.46809V1297.40426H1800.6383v63.74468s34.383-13.2766,48.17021-18.72341S1887.617,1326.766,1887.617,1326.766V1209.95745H1520.55319Z"/>
    <path class="a80f8c21-48da-400c-9335-63fab5c3292f" d="M1661.06383,1406.25532v-56.85106h86.80851v30.46808s-40,12.766-44.25532,13.87234S1661.06383,1406.25532,1661.06383,1406.25532Z"/>
    <path class="a80f8c21-48da-400c-9335-63fab5c3292f" d="M1936.97872,1302.766v-92.80851h87.82979v47.87234S1998,1273.14894,1984.7234,1279.53191,1936.97872,1302.766,1936.97872,1302.766Z"/>
    <rect class="b1efd186-27d3-4336-af7c-4bbbd1fc26f3" x="2006.93617" y="1600.97872" width="83.48936" height="83.74468"/>
    <polygon class="b1efd186-27d3-4336-af7c-4bbbd1fc26f3" points="899.362 1159.702 922.596 1159.702 933.064 1030.34 890.681 1030.34 899.362 1159.702"/>
    <polygon class="b1efd186-27d3-4336-af7c-4bbbd1fc26f3" points="832.92 1191.197 851.013 1176.621 778.01 1069.315 745.005 1095.904 832.92 1191.197"/>
    <polygon class="b1efd186-27d3-4336-af7c-4bbbd1fc26f3" points="797.304 1259.979 804.487 1237.883 684.699 1187.936 671.596 1228.242 797.304 1259.979"/>
    <polygon class="b1efd186-27d3-4336-af7c-4bbbd1fc26f3" points="804.695 1335.737 797.148 1313.763 671.4 1345.882 685.167 1385.967 804.695 1335.737"/>
    <g>
      <path class="ef70bd4a-1358-4e6d-8f9e-e76bbd9e593b" d="M987.07813,1804.8252v-40.66211h17.11767c9.27,0,13.5918,4.03808,13.5918,10.63476v.22754c0,4.32227-2.16065,7.50684-6.71045,8.70117,5.06152.9668,8.13232,4.03809,8.13232,9.55371v.22754c0,7.2793-4.834,11.31739-14.55859,11.31739Zm10.23681-24.22657h4.94727c4.03808,0,5.57324-1.42187,5.57324-4.66308v-.22754c0-3.12793-1.70606-4.43555-5.57324-4.43555h-4.94727Zm0,17.06055h5.57324c4.0376,0,5.91407-1.81934,5.91407-5.1748v-.22754c0-3.41211-1.81983-5.11817-6.3125-5.11817h-5.17481Z"/>
      <path class="ef70bd4a-1358-4e6d-8f9e-e76bbd9e593b" d="M1035.30566,1804.8252l13.19385-40.66211H1062.148l13.02344,40.66211h-11.08985l-2.44531-8.2461h-14.04687l-2.44532,8.2461Zm19.33545-32.13086-4.89062,16.54882h9.72461Z"/>
      <path class="ef70bd4a-1358-4e6d-8f9e-e76bbd9e593b" d="M1094.167,1804.8252v-40.66211h13.7627l8.58691,23.31738,8.53076-23.31738H1138.582v40.66211h-10.46387V1778.04l-10.521,26.78516h-3.52588L1103.55078,1778.04v26.78516Z"/>
      <path class="ef70bd4a-1358-4e6d-8f9e-e76bbd9e593b" d="M1160.8208,1804.8252v-40.66211h14.10352c14.27441,0,21.55371,7.50683,21.55371,19.84765v.45508c0,12.4541-7.2793,20.35938-21.61035,20.35938Zm10.57764-8.18946h3.12793c7.50683,0,10.97607-4.09472,10.97607-11.999v-.45508c0-7.96191-3.35547-11.88574-11.08984-11.88574h-3.01416Z"/>
      <path class="ef70bd4a-1358-4e6d-8f9e-e76bbd9e593b" d="M1211.209,1804.8252l13.19385-40.66211h13.64844l13.02344,40.66211h-11.08985l-2.44531-8.2461h-14.04687l-2.44532,8.2461Zm19.33545-32.13086-4.89062,16.54882h9.72461Z"/>
      <path class="ef70bd4a-1358-4e6d-8f9e-e76bbd9e593b" d="M1270.07031,1804.8252v-40.66211h14.10352c14.27441,0,21.55371,7.50683,21.55371,19.84765v.45508c0,12.4541-7.2793,20.35938-21.61035,20.35938Zm10.57764-8.18946h3.12793c7.50683,0,10.97607-4.09472,10.97607-11.999v-.45508c0-7.96191-3.35547-11.88574-11.08984-11.88574H1280.648Z"/>
      <path class="ef70bd4a-1358-4e6d-8f9e-e76bbd9e593b" d="M1358.44775,1804.8252v-32.5293h-10.74853v-8.13281h32.07471v8.13281h-10.74854v32.5293Z"/>
      <path class="ef70bd4a-1358-4e6d-8f9e-e76bbd9e593b" d="M1399.11084,1804.8252v-40.66211h15.29785c10.06592,0,16.15088,4.209,16.15088,12.625v.22754c0,5.915-3.29785,9.21289-7.791,10.749l10.17969,17.06055h-11.14648l-8.92822-15.07032h-3.29883v15.07032Zm10.46387-22.06543h4.37939c4.26465,0,6.36914-1.7627,6.36914-5.34571v-.22754c0-3.69629-2.27441-5.06152-6.3125-5.06152h-4.436Z"/>
      <path class="ef70bd4a-1358-4e6d-8f9e-e76bbd9e593b" d="M1448.81641,1804.8252l13.19336-40.66211h13.64941l13.02246,40.66211h-11.08887l-2.44629-8.2461h-14.04589l-2.44532,8.2461Zm19.33593-32.13086-4.89062,16.54882h9.72461Z"/>
      <path class="ef70bd4a-1358-4e6d-8f9e-e76bbd9e593b" d="M1507.67773,1804.8252v-40.66211h14.10352c14.27441,0,21.55371,7.50683,21.55371,19.84765v.45508c0,12.4541-7.2793,20.35938-21.61035,20.35938Zm10.57813-8.18946h3.12793c7.50684,0,10.97559-4.09472,10.97559-11.999v-.45508c0-7.96191-3.35547-11.88574-11.08985-11.88574h-3.01367Z"/>
      <path class="ef70bd4a-1358-4e6d-8f9e-e76bbd9e593b" d="M1563.582,1804.8252v-40.66211h10.63477v40.66211Z"/>
      <path class="ef70bd4a-1358-4e6d-8f9e-e76bbd9e593b" d="M1596.56738,1804.8252v-40.66211h12l14.16016,24.68164v-24.68164h9.26953v40.66211h-10.35059l-15.80957-27.07032v27.07032Z"/>
      <path class="ef70bd4a-1358-4e6d-8f9e-e76bbd9e593b" d="M1651.96,1784.75v-.45508c0-12.33984,8.92871-20.75683,21.042-20.75683,9.38379,0,17.62989,4.26464,18.53907,14.61523h-10.40723c-.68164-4.26465-3.52539-6.3125-8.0752-6.3125-6.3125,0-10.123,4.89063-10.123,12.56836v.45508c0,7.1084,2.90039,12.56836,10.35058,12.56836,3.07129,0,5.28907-.74024,6.6543-2.16114a8.06068,8.06068,0,0,0,2.21777-5.11816h-8.30371v-7.45019h18.71094v4.66308c0,10.52051-6.93848,18.1416-19.56348,18.1416C1659.41016,1805.50781,1651.96,1796.86328,1651.96,1784.75Z"/>
    </g>
  </g>
</svg>
