<svg width="17" height="16" viewBox="0 0 17 16" fill="none" xmlns="http://www.w3.org/2000/svg">
<path d="M5.4375 6.4375C5.90234 6.4375 6.28516 6.84766 6.28516 7.3125C6.28516 7.80469 5.90234 8.1875 5.4375 8.1875C4.94531 8.1875 4.5625 7.80469 4.5625 7.3125C4.5625 6.84766 4.94531 6.4375 5.4375 6.4375ZM8.5 6.4375C8.96484 6.4375 9.34766 6.84766 9.34766 7.3125C9.34766 7.75 8.9375 8.16016 8.5 8.16016C8.03516 8.16016 7.625 7.77734 7.625 7.3125C7.625 6.82031 8.00781 6.4375 8.5 6.4375ZM11.5625 6.4375C12.0273 6.4375 12.4375 6.84766 12.4102 7.3125C12.4102 7.80469 12.0273 8.1875 11.5625 8.1875C11.0977 8.1875 10.6875 7.80469 10.6875 7.3125C10.6875 6.84766 11.0703 6.4375 11.5625 6.4375ZM8.5 1.625C12.3555 1.625 15.4727 4.22266 15.4727 7.33984C15.4727 10.457 12.3555 13 8.5 13C7.59766 13 6.72266 12.8633 5.95703 12.6172C5.13672 13.1914 3.82422 13.875 2.15625 13.875C1.88281 13.875 1.63672 13.7383 1.55469 13.4648C1.47266 13.2188 1.5 12.9453 1.69141 12.7539C1.69141 12.7539 2.53906 11.8242 2.94922 10.7578C2.04688 9.80078 1.5 8.59766 1.5 7.3125C1.5 4.16797 4.61719 1.625 8.5 1.625ZM8.5 11.6875C11.6172 11.6875 14.1328 9.74609 14.1328 7.3125C14.1328 4.90625 11.5898 2.9375 8.47266 2.9375C5.35547 2.9375 2.8125 4.90625 2.8125 7.3125C2.8125 8.48828 3.38672 9.36328 3.87891 9.88281L4.45312 10.4844L4.15234 11.25C4.01562 11.6328 3.82422 12.0156 3.60547 12.3438C4.26172 12.125 4.80859 11.8242 5.19141 11.5508L5.71094 11.168L6.33984 11.3594C7.02344 11.5781 7.76172 11.6875 8.5 11.6875Z" fill="#3E3232" fill-opacity="0.5"/>
</svg>
