<svg width="24" height="25" viewBox="0 0 24 25" fill="none" xmlns="http://www.w3.org/2000/svg">
<path d="M6.75 11.312C5.925 11.312 5.25 11.987 5.25 12.812C5.25 13.637 5.925 14.312 6.75 14.312C7.575 14.312 8.25 13.637 8.25 12.812C8.25 11.987 7.575 11.312 6.75 11.312Z" stroke="#666666"/>
<path d="M17.25 11.312C16.425 11.312 15.75 11.987 15.75 12.812C15.75 13.637 16.425 14.312 17.25 14.312C18.075 14.312 18.75 13.637 18.75 12.812C18.75 11.987 18.075 11.312 17.25 11.312Z" stroke="#666666"/>
<path opacity="0.4" d="M12 11.312C11.175 11.312 10.5 11.987 10.5 12.812C10.5 13.637 11.175 14.312 12 14.312C12.825 14.312 13.5 13.637 13.5 12.812C13.5 11.987 12.825 11.312 12 11.312Z" stroke="#262626"/>
</svg>
