<svg width="18" height="18" viewBox="0 0 18 18" fill="none" xmlns="http://www.w3.org/2000/svg">
<path opacity="0.4" d="M12.3898 4.23779L10.0648 2.43779C9.7648 2.13779 9.0898 1.98779 8.6398 1.98779L5.7898 1.98779C4.8898 1.98779 3.9148 2.66279 3.6898 3.56279L1.8898 9.03779C1.5148 10.0878 2.1898 10.9878 3.3148 10.9878H6.3148C6.7648 10.9878 7.1398 11.3628 7.0648 11.8878L6.6898 14.2878C6.5398 14.9628 6.9898 15.7128 7.6648 15.9378C8.2648 16.1628 9.0148 15.8628 9.3148 15.4128L12.3898 10.8378" stroke="#666666" stroke-miterlimit="10"/>
<path d="M16.2148 4.23774V11.5877C16.2148 12.6377 15.7648 13.0127 14.7148 13.0127H13.9648C12.9148 13.0127 12.4648 12.6377 12.4648 11.5877L12.4648 4.23774C12.4648 3.18774 12.9148 2.81274 13.9648 2.81274H14.7148C15.7648 2.81274 16.2148 3.18774 16.2148 4.23774Z" stroke="#666666" stroke-linecap="round" stroke-linejoin="round"/>
</svg>
