<svg width="24" height="24" viewBox="0 0 24 24" fill="none" xmlns="http://www.w3.org/2000/svg">
<path d="M10.001 2H15.001C20.001 2 22.001 4 22.001 9V15C22.001 20 20.001 22 15.001 22" stroke="#666666" stroke-width="1.5" stroke-linecap="round" stroke-linejoin="round"/>
<path d="M22.001 10V13" stroke="#666666" stroke-width="1.5" stroke-linecap="round" stroke-linejoin="round"/>
<path d="M2.00098 10H6.00098C9.00098 10 10.001 9 10.001 6V2L2.00098 10Z" stroke="#666666" stroke-width="1.5" stroke-linecap="round" stroke-linejoin="round"/>
<path d="M11.5294 9.2137L4.85699 16.5427C4.60505 16.821 4.36123 17.3693 4.31247 17.7488L4.01176 20.4813C3.90611 21.4681 4.58879 22.1428 5.53155 21.9741L8.14851 21.5103C8.51424 21.4428 9.02625 21.1645 9.27819 20.8777L15.9506 13.5487C17.1047 12.2836 17.6248 10.8414 15.8287 9.07876C14.0407 7.33295 12.6835 7.94862 11.5294 9.2137Z" stroke="#666666" stroke-width="1.5" stroke-miterlimit="10" stroke-linecap="round" stroke-linejoin="round"/>
<path opacity="0.4" d="M11.001 10C11.3166 12.1437 12.9606 13.7825 15.001 14" stroke="#666666" stroke-width="1.5" stroke-miterlimit="10" stroke-linecap="round" stroke-linejoin="round"/>
</svg>
