<svg width="29" height="28" viewBox="0 0 29 28" fill="none" xmlns="http://www.w3.org/2000/svg">
<path opacity="0.4" d="M11 11.6667C12.2886 11.6667 13.3333 10.622 13.3333 9.33333C13.3333 8.04467 12.2886 7 11 7C9.71129 7 8.66663 8.04467 8.66663 9.33333C8.66663 10.622 9.71129 11.6667 11 11.6667Z" stroke="#063C8F" stroke-width="1.5" stroke-linecap="round" stroke-linejoin="round"/>
<path d="M15.6667 2.33325H11C5.16671 2.33325 2.83337 4.66659 2.83337 10.4999V17.4999C2.83337 23.3333 5.16671 25.6666 11 25.6666H18C23.8334 25.6666 26.1667 23.3333 26.1667 17.4999V11.6666" stroke="#063C8F" stroke-width="1.5" stroke-linecap="round" stroke-linejoin="round"/>
<g opacity="0.4">
<path d="M18.875 5.83325H25.2917" stroke="#063C8F" stroke-width="1.5" stroke-linecap="round"/>
<path d="M22.0834 9.04167V2.625" stroke="#063C8F" stroke-width="1.5" stroke-linecap="round"/>
</g>
<path opacity="0.4" d="M3.61499 22.1083L9.36666 18.2467C10.2883 17.6283 11.6183 17.6983 12.4467 18.41L12.8317 18.7483C13.7417 19.53 15.2117 19.53 16.1217 18.7483L20.975 14.5833C21.885 13.8017 23.355 13.8017 24.265 14.5833L26.1667 16.2167" stroke="#063C8F" stroke-width="1.5" stroke-linecap="round" stroke-linejoin="round"/>
</svg>
