<svg width="18" height="18" viewBox="0 0 18 18" fill="none" xmlns="http://www.w3.org/2000/svg">
<path opacity="0.4" d="M5.60999 13.7625L7.93498 15.5625C8.23498 15.8625 8.90998 16.0125 9.35998 16.0125H12.21C13.11 16.0125 14.085 15.3375 14.31 14.4375L16.11 8.96248C16.485 7.91248 15.81 7.01248 14.685 7.01248L11.685 7.01248C11.235 7.01248 10.86 6.63748 10.935 6.11248L11.31 3.71248C11.46 3.03748 11.01 2.28748 10.335 2.06248C9.73498 1.83748 8.98498 2.13748 8.68498 2.58748L5.60999 7.16248" stroke="#666666" stroke-miterlimit="10"/>
<path d="M1.78497 13.7625L1.78497 6.41255C1.78497 5.36255 2.23497 4.98755 3.28497 4.98755H4.03497C5.08497 4.98755 5.53497 5.36255 5.53497 6.41255L5.53497 13.7625C5.53497 14.8125 5.08497 15.1875 4.03497 15.1875H3.28497C2.23497 15.1875 1.78497 14.8125 1.78497 13.7625Z" stroke="#666666" stroke-linecap="round" stroke-linejoin="round"/>
</svg>
