<svg width="25" height="24" viewBox="0 0 25 24" fill="none" xmlns="http://www.w3.org/2000/svg">
<path opacity="0.4" d="M10.6515 19.11V4.89C10.6515 3.54 10.0815 3 8.64147 3H5.01147C3.57147 3 3.00146 3.54 3.00146 4.89V19.11C3.00146 20.46 3.57147 21 5.01147 21H8.64147C10.0815 21 10.6515 20.46 10.6515 19.11Z" stroke="white" stroke-width="1.5" stroke-linecap="round" stroke-linejoin="round"/>
<path d="M21.0014 19.11V4.89C21.0014 3.54 20.4314 3 18.9914 3H15.3614C13.9314 3 13.3514 3.54 13.3514 4.89V19.11C13.3514 20.46 13.9214 21 15.3614 21H18.9914C20.4314 21 21.0014 20.46 21.0014 19.11Z" stroke="white" stroke-width="1.5" stroke-linecap="round" stroke-linejoin="round"/>
</svg>
