<svg width="185" height="185" viewBox="0 0 185 185" fill="none" xmlns="http://www.w3.org/2000/svg">
<ellipse cx="92.5375" cy="92.6483" rx="92.037" ry="92.0223" fill="url(#paint0_linear_1306_12873)"/>
<path d="M78.0747 38.6724C107.885 30.6848 138.526 48.3754 146.513 78.1854C154.501 107.995 136.81 138.637 107 146.624C77.1902 154.612 46.5492 136.921 38.5616 107.111C30.574 77.301 48.2647 46.6599 78.0747 38.6724ZM100.492 122.335C116.888 117.942 126.617 101.089 122.224 84.6937C117.831 68.2982 100.978 58.5683 84.583 62.9615C68.1874 67.3547 58.4576 84.2072 62.8508 100.603C67.2439 116.998 84.0965 126.728 100.492 122.335Z" fill="#FAFAFA"/>
<path fill-rule="evenodd" clip-rule="evenodd" d="M92.5374 123.755C109.72 123.755 123.648 109.828 123.648 92.6484C123.648 75.4689 109.72 61.5422 92.5374 61.5422C75.3552 61.5422 61.4263 75.4689 61.4263 92.6484C61.4263 109.828 75.3552 123.755 92.5374 123.755ZM113.82 81.5264C114.835 80.5111 114.835 78.8649 113.82 77.8494C112.805 76.834 111.158 76.8338 110.143 77.8491L86.7035 101.285L74.9307 89.5139C73.9153 88.4986 72.2691 88.4988 71.2538 89.5142C70.2385 90.5297 70.2386 92.1759 71.2541 93.1912L84.8652 106.8L86.7035 108.638L88.5418 106.8L113.82 81.5264Z" fill="#FAFAFA"/>
<defs>
<linearGradient id="paint0_linear_1306_12873" x1="42.1082" y1="-179.069" x2="207.297" y2="-164.164" gradientUnits="userSpaceOnUse">
<stop stop-color="#55D4EB"/>
<stop offset="1" stop-color="#063C8F"/>
</linearGradient>
</defs>
</svg>
