<svg width="29" height="28" viewBox="0 0 29 28" fill="none" xmlns="http://www.w3.org/2000/svg">
<path d="M26.1667 10.4999V17.4999C26.1667 17.7683 26.1667 18.0249 26.1434 18.2816C26.0967 18.2116 26.0384 18.1416 25.98 18.0833C25.9684 18.0716 25.9567 18.0483 25.945 18.0366C25 16.9866 23.6117 16.3333 22.0834 16.3333C20.6134 16.3333 19.2717 16.9399 18.315 17.9199C17.3934 18.8649 16.8334 20.1599 16.8334 21.5833C16.8334 22.5633 17.1134 23.4966 17.5917 24.2899C17.8484 24.7216 18.175 25.1182 18.5484 25.4449C18.5717 25.4566 18.5834 25.4683 18.595 25.4799C18.6534 25.5383 18.7117 25.5849 18.7817 25.6432C18.5367 25.6666 18.2684 25.6666 18 25.6666H11C5.16671 25.6666 2.83337 23.3333 2.83337 17.4999V10.4999C2.83337 4.66659 5.16671 2.33325 11 2.33325H18C23.8334 2.33325 26.1667 4.66659 26.1667 10.4999Z" stroke="#FE590A" stroke-width="1.5" stroke-linecap="round" stroke-linejoin="round"/>
<g opacity="0.4">
<path d="M3.44006 8.29492H25.5601" stroke="#FE590A" stroke-width="1.5" stroke-linecap="round" stroke-linejoin="round"/>
<path d="M10.4401 2.46167V8.13165" stroke="#FE590A" stroke-width="1.5" stroke-linecap="round" stroke-linejoin="round"/>
<path d="M18.5601 2.46167V7.60671" stroke="#FE590A" stroke-width="1.5" stroke-linecap="round" stroke-linejoin="round"/>
</g>
<path d="M27.3334 21.5833C27.3334 22.0033 27.2867 22.4116 27.1817 22.8082C27.0534 23.3332 26.8434 23.8349 26.575 24.2899C25.665 25.8066 23.9967 26.8333 22.0834 26.8333C20.8234 26.8333 19.68 26.3899 18.7934 25.6432C18.7817 25.6432 18.7817 25.6432 18.7817 25.6432C18.7117 25.5849 18.6534 25.5383 18.595 25.4799C18.5834 25.4683 18.5717 25.4566 18.5484 25.4449C18.175 25.1182 17.8484 24.7216 17.5917 24.2899C17.1134 23.4966 16.8334 22.5633 16.8334 21.5833C16.8334 20.1599 17.3934 18.8649 18.315 17.9199C19.2717 16.9399 20.6134 16.3333 22.0834 16.3333C23.6117 16.3333 25 16.9866 25.945 18.0366C25.9567 18.0483 25.9684 18.0716 25.98 18.0833C26.0384 18.1416 26.0967 18.2116 26.1434 18.2816C26.89 19.1799 27.3334 20.3349 27.3334 21.5833Z" stroke="#FE590A" stroke-width="1.5" stroke-miterlimit="10" stroke-linecap="round" stroke-linejoin="round"/>
<g opacity="0.4">
<path d="M24.0433 21.5603H20.1233" stroke="#FE590A" stroke-width="1.5" stroke-miterlimit="10" stroke-linecap="round" stroke-linejoin="round"/>
<path d="M22.0829 19.6467V23.5667" stroke="#FE590A" stroke-width="1.5" stroke-miterlimit="10" stroke-linecap="round" stroke-linejoin="round"/>
</g>
</svg>
