<svg width="22" height="22" viewBox="0 0 22 22" fill="none" xmlns="http://www.w3.org/2000/svg">
<path d="M14.0005 7.36979V6.40979C14.0005 3.42979 11.9305 2.28979 9.41049 3.86979L6.49049 5.69979C6.17049 5.88979 5.80049 5.99979 5.43049 5.99979H4.00049C2.00049 5.99979 1.00049 6.99979 1.00049 8.99979V12.9998C1.00049 14.9998 2.00049 15.9998 4.00049 15.9998H6.00049" stroke="white" stroke-width="1.5" stroke-linecap="round" stroke-linejoin="round"/>
<path opacity="0.4" d="M9.41052 18.1302C11.9305 19.7102 14.0005 18.5602 14.0005 15.5902V11.9502" stroke="white" stroke-width="1.5" stroke-linecap="round" stroke-linejoin="round"/>
<path opacity="0.4" d="M17.8105 8.41992C18.7105 10.5699 18.4405 13.0799 17.0005 14.9999" stroke="white" stroke-width="1.5" stroke-linecap="round" stroke-linejoin="round"/>
<path opacity="0.4" d="M20.1504 6.7998C21.6204 10.2898 21.1804 14.3698 18.8304 17.4998" stroke="white" stroke-width="1.5" stroke-linecap="round" stroke-linejoin="round"/>
<path d="M21.0005 1L1.00049 21" stroke="white" stroke-width="1.5" stroke-linecap="round" stroke-linejoin="round"/>
</svg>
